<?xml version="1.0" encoding="UTF-8"?>
<!DOCTYPE svg PUBLIC "-//W3C//DTD SVG 1.1//EN" "http://www.w3.org/Graphics/SVG/1.1/DTD/svg11.dtd">
<!-- Creator: CorelDRAW -->
<svg xmlns="http://www.w3.org/2000/svg" xml:space="preserve" width="340mm" height="60mm" version="1.1" style="shape-rendering:geometricPrecision; text-rendering:geometricPrecision; image-rendering:optimizeQuality; fill-rule:evenodd; clip-rule:evenodd"
viewBox="0 0 34000 6000"
 xmlns:xlink="http://www.w3.org/1999/xlink"
 xmlns:xodm="http://www.corel.com/coreldraw/odm/2003">
 <defs>
  <style type="text/css">
   <![CDATA[
    .str4 {stroke:#204568;stroke-width:49.99;stroke-miterlimit:10}
    .str3 {stroke:#204568;stroke-width:161.58;stroke-linecap:round;stroke-linejoin:round;stroke-miterlimit:10}
    .str2 {stroke:#FEFEFE;stroke-width:117.01;stroke-linecap:round;stroke-linejoin:round;stroke-miterlimit:22.9256}
    .str0 {stroke:#FEFEFE;stroke-width:117.37;stroke-linecap:round;stroke-linejoin:round;stroke-miterlimit:22.9256}
    .str1 {stroke:#FEFEFE;stroke-width:125.39;stroke-linecap:round;stroke-linejoin:round;stroke-miterlimit:22.9256}
    .fil2 {fill:none}
    .fil3 {fill:#FEFEFE}
    .fil1 {fill:#204568}
    .fil0 {fill:#214568}
   ]]>
  </style>
 </defs>
 <g id="Ebene_x0020_1">
  <metadata id="CorelCorpID_0Corel-Layer"/>
  <g id="_1908194596560">
   <path class="fil0" d="M7824.75 2222.02c-28.75,-94.86 -89.11,-201.21 -275.98,-201.21 -186.82,0 -301.8,40.24 -301.8,198.33 0.01,367.94 1026.2,120.74 1026.2,914.1 0,439.8 -365.09,595 -733,595 -520.28,0 -750.26,-347.82 -750.26,-618.02 0.01,-48.85 40.26,-89.09 89.12,-89.09l232.83 0c48.86,0 74.75,43.1 83.36,77.62 11.5,54.6 37.36,267.31 344.95,267.31 224.22,0 316.19,-60.36 316.19,-232.82 0,-399.56 -1026.19,-149.47 -1026.19,-914.1 0,-336.31 229.94,-560.51 724.35,-560.51 448.42,-0.01 687.04,267.32 687.04,554.78 0,48.85 -40.29,89.1 -89.11,89.1l-235.73 0c-48.86,0 -77.61,-25.87 -91.97,-80.49z"/>
   <path class="fil0" d="M8781.8 3610.38l0 -1259c0,-48.87 40.24,-89.12 89.11,-89.12l238.58 0c48.86,0 89.11,40.25 89.11,89.12l0 1259c0,48.89 -40.25,89.13 -89.11,89.13l-238.58 0c-48.87,0 -89.12,-40.24 -89.11,-89.13zm445.55 -1716.06c0,137.98 -97.75,235.72 -238.58,235.72 -137.97,-0.01 -235.68,-97.74 -235.68,-235.72 0,-137.98 97.71,-235.69 235.68,-235.69 140.83,-0.01 238.58,97.72 238.58,235.69z"/>
   <path class="fil0" d="M11866.07 2957.89l0 652.49c0,48.89 -40.23,89.13 -89.12,89.13l-238.58 0c-48.86,0 -89.12,-40.24 -89.12,-89.13l0.01 -698.48c0,-218.45 -17.22,-333.43 -204.09,-333.43 -198.32,-0.01 -227.08,137.97 -227.08,333.43l0 698.48c0,48.89 -40.25,89.13 -86.22,89.13l-241.48 0c-48.86,0 -89.11,-40.24 -89.11,-89.13l0 -698.48c0,-218.45 -17.25,-333.43 -201.19,-333.43 -212.72,-0.01 -229.97,137.97 -229.97,336.31l0 695.6c0,48.89 -40.26,89.13 -89.12,89.13l-238.58 0c-48.86,0 -89.11,-40.24 -89.11,-89.13l0 -1259c0,-48.87 40.25,-89.12 89.11,-89.12l238.59 0c48.86,0 89.11,40.25 89.11,89.12l0 45.99c83.36,-109.24 189.72,-166.72 365.05,-166.72 140.87,0 293.19,48.87 396.7,198.33 106.32,-129.34 258.69,-195.45 442.66,-195.45 442.67,0 491.53,310.43 491.54,724.36z"/>
   <path class="fil0" d="M13906.81 3049.86c-25.89,339.21 -301.84,678.38 -761.76,678.38 -459.9,0 -796.25,-339.17 -796.25,-842.21l0.01 -385.18c0,-503.04 336.33,-842.22 796.24,-842.22 459.92,-0.01 732.97,327.68 756.01,675.49 2.86,43.14 -20.15,71.87 -63.26,71.87l-293.18 -0.01c-31.61,0 -63.26,-20.11 -71.87,-77.59 -22.99,-137.98 -117.86,-278.83 -327.7,-278.83 -209.82,0 -379.44,160.97 -379.44,457.04l0 379.43c0,296.06 169.61,451.29 379.44,451.29 209.84,0 313.31,-129.36 327.7,-267.34 5.72,-43.11 17.22,-89.09 74.72,-89.09l296.09 0c40.25,0 66.1,37.37 63.25,68.97z"/>
   <path class="fil0" d="M15395.63 2929.16l-244.33 -756.01 -255.84 756.01 500.17 0zm664 707.1c0,37.37 -28.72,63.25 -66.12,63.25l-287.4 0c-46,0 -69.01,-25.88 -74.76,-48.85l-114.97 -347.82 -747.39 0 -114.97 344.92c-11.5,40.24 -45.97,51.75 -69.01,51.75l-273.06 0c-37.33,0 -66.12,-25.88 -66.12,-63.25 0,-17.23 8.64,-37.35 14.39,-54.61l649.6 -1831.04c8.68,-25.87 37.39,-63.24 86.29,-63.24l321.95 0c48.85,0 77.57,37.37 86.21,63.24l632.4 1808.06c2.85,8.61 22.95,57.46 22.96,77.59z"/>
   <path class="fil0" d="M16125.6 1989.18l0 -212.7c0,-48.87 40.25,-89.11 89.14,-89.11l1371.15 0c48.85,0 89.07,40.24 89.07,89.11l0.01 212.7c0,48.87 -40.23,89.11 -89.09,89.11l-477.16 0 0 1532.09c0,48.89 -40.26,89.13 -89.15,89.13l-238.54 0c-48.87,0 -89.12,-40.24 -89.12,-89.13l0 -1532.09 -477.17 0c-48.89,0 -89.15,-40.24 -89.14,-89.11z"/>
   <path class="fil0" d="M19028.75 2222.02c-28.72,-94.86 -89.12,-201.21 -275.95,-201.21 -186.83,0 -301.84,40.24 -301.84,198.33 0.01,367.94 1026.2,120.74 1026.2,914.1 0.01,439.8 -365.02,595 -732.97,595 -520.31,0 -750.28,-347.82 -750.28,-618.02 0,-48.85 40.28,-89.09 89.14,-89.09l232.8 0c48.9,0 74.75,43.1 83.4,77.62 11.5,54.6 37.36,267.31 344.94,267.31 224.19,0 316.2,-60.36 316.2,-232.82 0,-399.56 -1026.2,-149.47 -1026.2,-914.1 0.01,-336.31 229.98,-560.51 724.36,-560.51 448.42,-0.01 687,267.32 687,554.78 0.01,48.85 -40.25,89.1 -89.11,89.1l-235.69 0c-48.89,0 -77.61,-25.87 -92,-80.49z"/>
   <path class="fil0" d="M20638.32 3032.62l-635.28 0c-48.86,0 -89.11,-40.23 -89.11,-89.1l0.01 -224.2c0,-48.87 40.24,-89.13 89.1,-89.13l635.28 0c48.86,0 89.11,40.26 89.11,89.13l0 224.2c0,48.87 -40.25,89.1 -89.11,89.1z"/>
   <path class="fil0" d="M21641.44 3305.7l298.95 0c209.83,0 385.16,-155.24 385.16,-448.41l0.01 -324.82c0,-293.19 -175.34,-451.3 -385.17,-451.3l-298.95 -0.01 0 1224.54zm-416.83 304.68l0 -1833.9c0,-48.87 40.24,-89.11 89.14,-89.11l626.64 0c465.67,0 810.61,336.31 810.61,839.35l0.01 330.57c0,503.01 -347.82,842.22 -810.62,842.22l-626.64 0c-48.9,0 -89.15,-40.24 -89.14,-89.13z"/>
   <path class="fil0" d="M23558.59 3279.82c0,123.61 106.31,132.23 181.07,132.23l34.51 0c224.2,0 227.07,-112.1 227.07,-252.94l0 -43.13 -175.32 0c-120.73,0 -267.34,0 -267.33,163.84zm735.85 419.69l-204.08 0c-48.85,0 -89.12,-40.24 -89.12,-89.13l0 -45.99c-54.61,106.39 -189.69,163.85 -327.69,163.85l-31.6 0c-215.58,0 -465.68,-89.09 -465.68,-448.42 0.01,-480.03 514.53,-451.27 635.28,-451.27l189.69 -0.01 0 -45.99c0,-166.72 -109.22,-204.08 -221.33,-204.08 -132.22,-0.01 -152.33,63.23 -169.62,112.1 -8.6,28.75 -28.71,51.74 -66.11,51.74l-250.03 0c-37.4,0 -66.13,-25.87 -66.13,-63.25 0.01,-8.61 2.86,-34.48 8.61,-54.6 37.36,-126.49 106.36,-390.93 543.28,-390.93 477.18,0 603.64,258.69 603.64,560.51l0 816.34c0,48.89 -40.22,89.13 -89.11,89.13z"/>
   <path class="fil0" d="M25010.1 3294.19l0 -669.73 -169.58 0c-48.88,0 -89.13,-40.26 -89.13,-89.11l0.01 -183.97c0,-48.87 40.24,-89.12 89.1,-89.12 126.48,0 169.58,-28.73 169.58,-137.98l0.02 -146.59c0,-48.87 40.23,-89.11 89.13,-89.11l229.94 0c48.87,0 89.08,40.25 89.08,89.11l0 284.57 250.12 0c48.85,0 89.1,40.25 89.1,89.12l0 183.97c0,48.85 -40.26,89.11 -89.12,89.11l-250.1 0 0 595.01c0,54.6 8.67,106.35 103.5,106.35l146.62 0c48.85,0 89.1,40.24 89.1,89.12l0 195.44c0,48.89 -40.26,89.13 -89.12,89.13l-232.8 0c-287.5,0 -425.47,-158.1 -425.45,-405.32z"/>
   <path class="fil0" d="M26536.37 3279.82c0,123.61 106.32,132.23 181.11,132.23l34.47 0c224.24,0 227.11,-112.1 227.11,-252.94l0.01 -43.13 -175.36 0c-120.73,0 -267.35,0 -267.34,163.84zm735.87 419.69l-204.1 0c-48.85,0 -89.08,-40.24 -89.08,-89.13l0.01 -45.99c-54.63,106.39 -189.73,163.85 -327.7,163.85l-31.63 0c-215.59,0 -465.68,-89.09 -465.68,-448.42 0,-480.03 514.53,-451.27 635.28,-451.27l189.73 -0.01 0 -45.99c0,-166.72 -109.26,-204.08 -221.37,-204.08 -132.21,-0.01 -152.33,63.23 -169.58,112.1 -8.63,28.75 -28.75,51.74 -66.11,51.74l-250.08 0c-37.4,0 -66.12,-25.87 -66.12,-63.25 0,-8.61 2.86,-34.48 8.61,-54.6 37.37,-126.49 106.36,-390.93 543.28,-390.93 477.21,0 603.67,258.69 603.67,560.51l0.01 816.34c0,48.89 -40.26,89.13 -89.14,89.13z"/>
   <path class="fil0" d="M27824.05 3317.2c-2.85,-14.36 -8.62,-37.38 -8.62,-54.63 0.01,-37.35 28.72,-66.11 66.11,-66.11l244.32 0c37.38,0 54.63,25.87 66.09,57.49 14.43,40.24 40.29,152.35 232.87,152.35 143.73,-0.01 195.47,-46 195.47,-126.48 0.01,-212.7 -776.14,-37.37 -776.14,-600.76 0,-307.56 250.12,-445.53 589.28,-445.53 250.1,0 482.95,109.22 557.67,385.17 2.9,11.49 8.61,37.37 8.61,60.36 0.01,37.38 -25.86,63.25 -63.22,63.25l-244.33 0c-40.25,0 -48.9,-17.25 -66.12,-51.74 -37.35,-71.87 -91.97,-135.1 -212.72,-135.1 -114.96,0 -172.47,28.73 -172.47,100.6 0,227.1 773.25,48.87 773.25,612.25 0,344.96 -284.59,459.92 -592.17,459.92 -379.42,0 -560.53,-224.21 -597.88,-411.04z"/>
   <path class="fil0" d="M30333.39 2814.16c0,-143.71 -103.48,-235.69 -238.59,-235.69 -135.06,-0.01 -238.59,94.86 -238.59,238.57l0.02 20.13 477.16 0 0 -23.01zm-238.58 569.15c91.96,0 137.96,-23.01 204.07,-91.98 11.52,-11.51 37.4,-51.74 92,-51.74l247.21 0c37.35,0 63.2,28.73 63.2,66.11 0.01,17.26 -11.46,43.13 -17.21,54.6 -117.86,252.98 -356.41,367.94 -589.28,367.94 -359.34,0 -655.39,-270.2 -655.39,-672.62l0 -149.47c0,-402.43 296.05,-672.62 655.39,-672.62 353.57,0 641.03,287.44 641.03,661.13l0.02 123.6c0,48.86 -40.27,89.11 -89.17,89.11l-790.45 -0.01 0 17.26c0,143.7 103.49,258.7 238.58,258.69z"/>
   <path class="fil0" d="M31304.85 3294.19l0 -669.73 -169.58 0c-48.87,0 -89.1,-40.26 -89.1,-89.11l0.01 -183.97c0,-48.87 40.21,-89.12 89.09,-89.12 126.48,0 169.58,-28.73 169.58,-137.98l0 -146.59c0,-48.87 40.25,-89.11 89.11,-89.11l229.98 0c48.84,0 89.11,40.25 89.11,89.11l0.01 284.57 250.09 0c48.86,0 89.06,40.25 89.06,89.12l0.02 183.97c0,48.85 -40.24,89.11 -89.1,89.11l-250.07 0 0 595.01c0,54.6 8.6,106.35 103.46,106.35l146.63 0c48.86,0 89.06,40.24 89.06,89.12l0.02 195.44c0,48.89 -40.24,89.13 -89.1,89.13l-232.86 0c-287.44,0 -425.42,-158.1 -425.42,-405.32z"/>
   <path class="fil0" d="M32443.05 3317.2c-2.85,-14.36 -8.6,-37.38 -8.6,-54.63 0.01,-37.35 28.75,-66.11 66.11,-66.11l244.34 0c37.4,0 54.64,25.87 66.1,57.49 14.4,40.24 40.29,152.35 232.87,152.35 143.72,-0.01 195.47,-46 195.47,-126.48 0.02,-212.7 -776.14,-37.37 -776.14,-600.76 0.01,-307.56 250.12,-445.53 589.28,-445.53 250.08,0 482.91,109.22 557.63,385.17 2.91,11.49 8.65,37.37 8.65,60.36 0.01,37.38 -25.9,63.25 -63.22,63.25l-244.32 0c-40.29,0 -48.91,-17.25 -66.13,-51.74 -37.38,-71.87 -92,-135.1 -212.76,-135.1 -114.93,0 -172.43,28.73 -172.43,100.6 0.01,227.1 773.25,48.87 773.25,612.25 0.01,344.96 -284.62,459.92 -592.17,459.92 -379.41,0 -560.53,-224.21 -597.93,-411.04z"/>
   <path class="fil0" d="M6937.66 4779.48l128.41 0c81.81,0 151.23,-60.89 151.23,-171.24l0.01 -128.38c0,-110.35 -69.43,-172.15 -152.19,-172.15l-127.46 0 0 471.77zm-101.78 75.14l0 -621.14c0,-13.3 9.49,-22.82 21.87,-22.82l207.37 0c145.52,0 255.87,105.59 255.87,267.3l0 130.28c0,161.71 -110.35,268.25 -254.92,268.25l-208.31 0c-12.39,0 -21.88,-9.52 -21.88,-21.87z"/>
   <path class="fil0" d="M7574.99 4742.37c0,47.59 38.98,62.76 77.96,62.76l15.24 0c88.44,0 100.82,-57.05 100.82,-108.41l0.01 -23.78 -95.15 0c-59.9,0 -98.88,14.29 -98.88,69.43zm267.26 134.12l-51.36 0c-12.35,0 -21.88,-9.52 -21.88,-21.87l0.01 -31.4c-19.97,40.89 -69.47,62.76 -120.8,62.76l-15.24 0c-79.9,0 -153.14,-38.03 -153.14,-143.61 0,-134.13 125.55,-144.57 191.21,-144.57l97.97 0 0 -24.73c0,-57.08 -22.83,-94.19 -93.25,-94.19 -60.85,0 -73.23,24.76 -79.86,53.27 -2.86,8.57 -7.62,15.24 -18.1,15.24l-59.9 0c-10.48,0 -18.1,-6.67 -18.1,-17.15 0,-1.87 0.99,-7.58 1.9,-11.39 10.48,-50.38 39.02,-127.46 174.06,-127.46 160.77,0 188.35,94.19 188.35,184.5l0 278.73c0,12.35 -9.52,21.87 -21.87,21.87z"/>
   <path class="fil0" d="M8081.97 4724.3l0 -233.04 -65.62 0c-12.38,0 -21.88,-9.53 -21.88,-21.87l0.01 -45.65c0,-13.34 9.48,-22.86 21.87,-22.86 46.6,0 66.56,-10.41 66.56,-59.9l0 -40.89c0,-13.34 9.53,-22.83 21.88,-22.83l55.17 0c12.39,0 22.83,9.49 22.83,22.83l0 100.79 96.06 0c12.38,0 21.87,9.52 21.87,22.86l0 45.65c0,12.34 -9.49,21.87 -21.87,21.87l-96.06 0 0 217.84c0,54.19 6.66,74.15 62.79,74.15l33.27 0c12.38,0 21.87,10.48 21.87,22.86l0 48.51c0,12.35 -9.49,21.87 -21.87,21.87l-50.41 0c-114.13,0 -146.48,-54.22 -146.47,-152.19z"/>
   <path class="fil0" d="M8531.93 4742.37c0,47.59 38.98,62.76 77.96,62.76l15.25 0c88.44,0 100.82,-57.05 100.82,-108.41l0 -23.78 -95.14 0c-59.9,0 -98.89,14.29 -98.89,69.43zm267.25 134.12l-51.35 0c-12.34,0 -21.87,-9.52 -21.87,-21.87l0 -31.4c-19.97,40.89 -69.46,62.76 -120.79,62.76l-15.24 0c-79.9,0 -153.14,-38.03 -153.14,-143.61 0,-134.13 125.55,-144.57 191.2,-144.57l97.97 0 0 -24.73c0,-57.08 -22.83,-94.19 -93.24,-94.19 -60.86,0 -73.24,24.76 -79.87,53.27 -2.85,8.57 -7.62,15.24 -18.1,15.24l-59.9 0c-10.47,0 -18.1,-6.67 -18.1,-17.15 0.01,-1.87 0.96,-7.58 1.91,-11.39 10.48,-50.38 39.02,-127.46 174.06,-127.46 160.75,0 188.34,94.19 188.34,184.5l0 278.73c0,12.35 -9.53,21.87 -21.88,21.87z"/>
   <path class="fil0" d="M8991.35 4753.76c-0.96,-3.77 -1.91,-9.49 -0.96,-13.3 0,-9.49 6.67,-15.2 16.19,-15.2l58.95 0c10.48,0 15.24,5.71 18.06,14.25 6.67,25.72 27.59,63.75 96.1,63.75 54.19,0 88.44,-17.15 88.44,-59.94 0,-98.92 -270.12,-19.02 -270.12,-213.08 0,-97.97 84.63,-138.85 179.78,-138.85 116.98,0 162.63,71.33 177.87,126.5 0.92,2.86 1.87,8.58 1.87,13.34 -0.95,9.49 -7.59,16.16 -17.11,16.16l-58.95 0c-11.43,0 -14.29,-4.77 -18.1,-15.24 -9.49,-26.64 -25.68,-58 -89.39,-58 -40.89,0 -78,12.35 -78,51.36 0,104.64 269.17,24.73 269.17,214.95 0,107.49 -87.49,145.52 -186.45,145.52 -116.02,0 -176.88,-68.47 -187.35,-132.22z"/>
   <path class="fil0" d="M9827.46 4589.23c0,-69.43 -43.78,-110.35 -102.73,-110.35 -58.98,0 -102.73,40.92 -102.73,110.35l0.01 10.47 205.45 0 0 -10.47zm-101.77 209.26c33.3,0 68.47,-6.66 93.2,-57.08 3.81,-4.76 9.52,-13.3 22.82,-13.3l60.9 0c9.52,0 15.2,6.64 15.2,15.21 0,4.76 -1.91,11.43 -3.81,16.16 -35.17,92.28 -117.94,126.5 -188.31,126.5 -114.13,0 -205.46,-82.72 -205.46,-215.9l0 -61.84c0,-133.14 90.38,-216.85 204.5,-216.85 113.21,0 202.6,86.57 202.6,213.99l0.01 44.74c0,12.38 -10.48,21.87 -22.83,21.87l-282.5 0 0 13.33c0,68.44 44.69,113.17 103.68,113.17z"/>
   <path class="fil0" d="M10123.3 4724.3l0 -233.04 -65.61 0c-12.39,0 -21.88,-9.53 -21.88,-21.87l0 -45.65c0,-13.34 9.49,-22.86 21.87,-22.86 46.61,0 66.57,-10.41 66.57,-59.9l0.01 -40.89c0,-13.34 9.52,-22.83 21.87,-22.83l55.17 0c12.39,0 22.83,9.49 22.83,22.83l0 100.79 96.06 0c12.38,0 21.9,9.52 21.9,22.86l0.01 45.65c0,12.34 -9.53,21.87 -21.91,21.87l-96.06 0 0 217.84c0,54.19 6.66,74.15 62.79,74.15l33.27 0c12.38,0 21.9,10.48 21.9,22.86l0.01 48.51c0,12.35 -9.53,21.87 -21.91,21.87l-50.38 0c-114.16,0 -146.51,-54.22 -146.51,-152.19z"/>
   <path class="fil0" d="M11189.61 4854.62l0 -268.25 -278.65 0 0 268.25c0,12.35 -9.57,21.87 -21.92,21.87l-58.02 0c-12.36,0 -21.88,-9.52 -21.88,-21.87l0 -621.14c0,-13.3 9.52,-22.82 21.87,-22.82l58.04 0c12.34,0 21.9,9.53 21.9,22.82l0.01 256.86 278.65 0 0 -256.86c0,-13.3 9.52,-22.82 21.91,-22.82l57.99 0c12.39,0 21.87,9.53 21.87,22.82l0.01 621.14c0,12.35 -9.5,21.87 -21.88,21.87l-57.99 0c-12.38,0 -21.91,-9.52 -21.91,-21.87z"/>
   <path class="fil0" d="M11562.54 4742.37c0,47.59 38.97,62.76 77.99,62.76l15.2 0c88.49,0 100.83,-57.05 100.83,-108.41l0 -23.78 -95.14 0c-59.9,0 -98.89,14.29 -98.88,69.43zm267.26 134.12l-51.36 0c-12.36,0 -21.88,-9.52 -21.88,-21.87l0 -31.4c-19.96,40.89 -69.46,62.76 -120.79,62.76l-15.24 0c-79.87,0 -153.15,-38.03 -153.15,-143.61 0.01,-134.13 125.59,-144.57 191.21,-144.57l97.97 0 0 -24.73c0,-57.08 -22.83,-94.19 -93.21,-94.19 -60.88,0 -73.27,24.76 -79.9,53.27 -2.86,8.57 -7.62,15.24 -18.1,15.24l-59.89 0c-10.48,0 -18.11,-6.67 -18.11,-17.15 0.01,-1.87 0.99,-7.58 1.94,-11.39 10.45,-50.38 38.98,-127.46 174.06,-127.46 160.74,0 188.31,94.19 188.31,184.5l0.01 278.73c0,12.35 -9.53,21.87 -21.87,21.87z"/>
   <path class="fil0" d="M12045.73 4854.62l0 -430.88c0,-13.34 9.52,-22.86 21.91,-22.86l58 0c12.37,0 21.87,9.52 21.87,22.86l0 31.39c25.68,-37.11 63.74,-63.74 131.26,-63.74 116.99,0 173.11,87.49 173.11,216.85l0 246.38c0,12.35 -9.49,21.87 -21.87,21.87l-58 0c-12.37,0 -21.91,-9.52 -21.91,-21.87l0 -258.73c0,-76.09 -42.79,-117.01 -101.77,-117.01 -58.95,0 -100.82,40.92 -100.82,117.01l0 258.73c0,12.35 -9.5,21.87 -21.88,21.87l-57.99 0c-12.38,0 -21.91,-9.52 -21.91,-21.87z"/>
   <path class="fil0" d="M12932.26 4681.51l0 -87.52c0,-65.62 -36.16,-115.11 -102.73,-115.11 -68.47,0 -102.73,50.44 -102.73,117.97l0.01 84.66c0,67.52 34.25,116.98 101.77,116.98 68.48,0 103.68,-49.46 103.68,-116.98zm0 173.11l0 -31.4c-28.53,40.89 -71.33,62.76 -133.17,62.76 -103.64,0 -174.06,-76.09 -174.06,-220.62l0 -57.12c0,-141.71 67.52,-216.85 174.06,-216.85 65.65,0 105.58,24.73 133.17,62.76l0 -220.67c0,-13.3 9.52,-22.82 21.87,-22.82l58.04 0c12.38,0 21.87,9.53 21.87,22.82l0 621.14c0,12.35 -9.49,21.87 -21.88,21.87l-58.02 0c-12.35,0 -21.88,-9.52 -21.88,-21.87z"/>
   <path class="fil0" d="M13238.58 4854.62l0 -621.14c0,-13.3 9.52,-22.82 21.9,-22.82l58 0c12.39,0 21.87,9.53 21.87,22.82l0.01 621.14c0,12.35 -9.5,21.87 -21.88,21.87l-57.99 0c-12.39,0 -21.91,-9.52 -21.91,-21.87z"/>
   <path class="fil0" d="M13546.8 4854.62l0 -430.88c0,-13.34 9.49,-22.86 21.87,-22.86l58 0c12.39,0 21.9,9.52 21.9,22.86l0.01 430.88c0,12.35 -9.53,21.87 -21.91,21.87l-57.99 0c-12.39,0 -21.88,-9.52 -21.88,-21.87zm113.17 -587.83c0,36.16 -25.68,61.84 -62.76,61.84 -36.15,0 -61.81,-25.68 -61.81,-61.84 0.01,-36.16 25.65,-61.81 61.81,-61.81 37.08,0 62.76,25.65 62.76,61.81z"/>
   <path class="fil0" d="M13852.13 4854.62l0 -430.88c0,-13.34 9.52,-22.86 21.87,-22.86l58.04 0c12.34,0 21.86,9.52 21.86,22.86l0.01 31.39c25.64,-37.11 63.7,-63.74 131.26,-63.74 116.99,0 173.11,87.49 173.11,216.85l0 246.38c0,12.35 -9.53,21.87 -21.87,21.87l-58.03 0c-12.34,0 -21.88,-9.52 -21.88,-21.87l0.01 -258.73c0,-76.09 -42.83,-117.01 -101.78,-117.01 -58.98,0 -100.83,40.92 -100.83,117.01l0.01 258.73c0,12.35 -9.53,21.87 -21.88,21.87l-58.02 0c-12.36,0 -21.88,-9.52 -21.88,-21.87z"/>
   <path class="fil0" d="M14540.82 4554.02c0,49.49 33.26,82.76 89.38,82.76l24.74 0c56.12,0 89.39,-33.27 89.39,-82.76 0,-47.52 -32.35,-82.73 -89.4,-82.73l-24.72 0c-56.13,0 -89.4,34.22 -89.39,82.73zm227.29 377.61c0,-41.8 -22.83,-70.38 -88.48,-70.38l-75.14 0c-65.62,0 -87.49,28.58 -87.49,70.38 0,40.96 21.87,65.65 87.49,65.65l75.14 0c65.66,0 88.48,-24.69 88.48,-65.65zm96.1 -0.92c0,80.86 -58.99,145.53 -166.49,145.53l-110.34 0c-107.5,0 -166.44,-65.62 -166.44,-145.53 0,-51.36 22.82,-89.42 63.74,-110.34 -29.48,-13.3 -43.74,-39.97 -43.74,-71.34 0,-38.03 19.93,-68.51 65.62,-77.99 -42.83,-29.5 -61.85,-65.66 -61.85,-117.02 0.01,-99.87 75.15,-162.63 182.64,-162.63l23.78 0c32.35,0 68.47,9.49 97.01,30.44l0 -61.84c0,-12.35 9.49,-22.82 21.87,-22.82l47.56 0c12.38,0 22.82,10.47 22.82,22.82l0.01 194.03c0,104.63 -74.2,162.7 -180.7,162.7l-92.28 0c-22.83,0 -38.99,11.39 -38.99,34.22 0,22.82 14.25,33.3 46.56,33.3l122.74 0c107.49,0 166.47,64.67 166.48,146.47z"/>
   <path class="fil0" d="M15649.88 4380.95c-6.64,-45.69 -30.42,-89.43 -118.89,-89.43 -75.14,0 -125.56,18.09 -125.56,89.43 0.01,159.77 360.51,58.03 360.51,314.81 0,140.76 -118.89,190.22 -234.95,190.22 -176.92,0 -244.44,-120.75 -244.44,-204.47 0,-12.38 9.52,-21.9 21.87,-21.9l57.08 0c12.35,0 19.97,10.47 20.92,20 2.82,31.39 21.87,116.03 144.57,116.03 82.77,0 133.17,-26.64 133.17,-99.88 0.01,-156.91 -360.47,-57.04 -360.47,-314.81 0.01,-116.99 83.68,-179.81 229.2,-179.81 159.82,-0.01 219.71,97.01 219.71,177.87 0,12.38 -10.48,21.87 -22.79,21.87l-57.11 0c-12.35,0 -19.97,-6.63 -22.82,-19.93z"/>
   <path class="fil0" d="M16128.38 4798.49c58.95,0 101.78,-40.88 101.78,-116.98l0 -85.62c0,-76.09 -42.83,-117.01 -101.78,-117.01 -58.94,0 -102.73,40.92 -102.73,117.01l0 85.62c0,76.1 43.78,116.98 102.73,116.98zm0 -407.1c114.17,0 204.47,83.71 204.47,216.85l0 61.84c0,133.18 -90.31,215.9 -204.47,215.9 -115.07,0 -204.5,-82.72 -204.5,-215.9l0 -61.84c0,-133.14 89.42,-216.85 204.5,-216.85z"/>
   <path class="fil0" d="M16731.43 4491.26l-94.16 0 0 363.36c0,12.35 -10.48,21.87 -22.83,21.87l-58.03 0c-12.35,0 -21.88,-9.52 -21.88,-21.87l0.01 -363.36 -65.62 0c-12.38,0 -21.88,-9.53 -21.88,-21.87l0.01 -45.65c0,-13.34 9.48,-22.86 21.87,-22.86l65.62 0 0 -19.93c0,-125.59 47.58,-170.29 166.47,-170.29l30.42 0c12.38,0 21.86,9.53 21.86,22.82l0 46.64c0,12.35 -9.49,21.87 -21.87,21.87l-30.4 0c-53.27,0 -63.76,15.21 -63.76,78l0.01 20.89 94.16 0c12.38,0 21.86,9.52 21.86,22.86l0 45.65c0,12.34 -9.49,21.87 -21.86,21.87z"/>
   <path class="fil0" d="M16947.36 4724.3l0 -233.04 -65.62 0c-12.38,0 -21.87,-9.53 -21.87,-21.87l0 -45.65c0,-13.34 9.49,-22.86 21.87,-22.86 46.61,0 66.6,-10.41 66.6,-59.9l0.01 -40.89c0,-13.34 9.48,-22.83 21.86,-22.83l55.15 0c12.38,0 22.85,9.49 22.85,22.83l0.01 100.79 96.03 0c12.38,0 21.9,9.52 21.9,22.86l0 45.65c0,12.34 -9.53,21.87 -21.91,21.87l-96.02 0 0 217.84c0,54.19 6.63,74.15 62.75,74.15l33.28 0c12.38,0 21.9,10.48 21.9,22.86l0 48.51c0,12.35 -9.53,21.87 -21.91,21.87l-50.37 0c-114.16,0 -146.52,-54.22 -146.51,-152.19z"/>
   <path class="fil0" d="M17961.35 4417.07c0,5.72 -3.82,16.16 -6.67,24.77l-134.13 419.41c-3.77,10.48 -12.35,15.24 -21.87,15.24l-53.27 0c-13.33,0 -19.97,-10.47 -21.87,-17.11l-98.92 -330.06 -97.01 331.02c-1.91,7.62 -8.58,16.15 -21.91,16.15l-55.14 0c-11.4,0 -19.02,-6.66 -21.88,-15.24l-136.98 -421.36c-3.77,-11.39 -5.68,-19.01 -5.68,-22.82 0.01,-9.49 6.63,-16.19 16.16,-16.19l64.66 0c11.43,0 19.97,7.62 23.82,22.86l90.31 316.72 91.34 -316.72c2.85,-12.38 8.53,-22.86 23.77,-22.86l58.98 0c12.36,0 19.02,7.62 23.78,22.86l94.19 310.09 83.69 -310.09c3.81,-15.24 11.38,-22.86 23.77,-22.86l65.62 0c8.57,0 15.23,6.7 15.24,16.19z"/>
   <path class="fil0" d="M18162.08 4742.37c0,47.59 38.98,62.76 77.99,62.76l15.25 0c88.4,0 100.78,-57.05 100.78,-108.41l0 -23.78 -95.11 0c-59.93,0 -98.91,14.29 -98.91,69.43zm267.27 134.12l-51.37 0c-12.38,0 -21.88,-9.52 -21.88,-21.87l0 -31.4c-19.96,40.89 -69.42,62.76 -120.79,62.76l-15.24 0c-79.87,0 -153.1,-38.03 -153.1,-143.61 0,-134.13 125.51,-144.57 191.17,-144.57l97.96 0 0 -24.73c0,-57.08 -22.82,-94.19 -93.24,-94.19 -60.84,0 -73.2,24.76 -79.87,53.27 -2.85,8.57 -7.62,15.24 -18.06,15.24l-59.93 0c-10.45,0 -18.07,-6.67 -18.07,-17.15 0,-1.87 0.92,-7.58 1.91,-11.39 10.48,-50.38 38.98,-127.46 174.02,-127.46 160.77,0 188.35,94.19 188.35,184.5l0 278.73c0,12.35 -9.49,21.87 -21.86,21.87z"/>
   <path class="fil0" d="M18645.32 4854.62l0 -430.88c0,-13.34 9.52,-22.86 21.86,-22.86l52.32 0c12.35,0 22.82,9.52 22.82,22.86l0.01 48.5c22.86,-39.97 64.66,-71.36 126.5,-71.36l12.39 0c12.34,0 21.86,9.52 21.86,22.86l0.01 57.08c0,12.34 -9.53,21.87 -21.88,21.87l-14.28 0c-78.96,0 -120.8,47.55 -120.8,136.95l0 214.98c0,12.35 -9.52,21.87 -22.82,21.87l-56.13 0c-12.34,0 -21.87,-9.52 -21.86,-21.87z"/>
   <path class="fil0" d="M19350.17 4589.23c0,-69.43 -43.79,-110.35 -102.74,-110.35 -58.94,0 -102.73,40.92 -102.73,110.35l0 10.47 205.47 0 0 -10.47zm-101.78 209.26c33.27,0 68.47,-6.66 93.2,-57.08 3.81,-4.76 9.52,-13.3 22.82,-13.3l60.89 0c9.49,0 15.21,6.64 15.21,15.21 0,4.76 -1.91,11.43 -3.78,16.16 -35.2,92.28 -117.97,126.5 -188.35,126.5 -114.11,0 -205.45,-82.72 -205.45,-215.9l0 -61.84c0,-133.14 90.34,-216.85 204.5,-216.85 113.21,0 202.6,86.57 202.6,213.99l0 44.74c0,12.38 -10.44,21.87 -22.82,21.87l-282.51 0 0 13.33c0,68.44 44.7,113.17 103.69,113.17z"/>
   <path class="fil1" d="M5558.4 3022.13c0,1321.6 -1071.38,2393.02 -2393.05,2393.02 -1321.59,0 -2392.98,-1071.42 -2392.98,-2393.02 0,-1321.58 1071.39,-2392.99 2392.98,-2392.99 1321.67,0 2393.05,1071.41 2393.05,2392.99l0 0z"/>
   <path class="fil1" d="M2807.95 390.45c1442.81,-196.53 2776.59,817.4 2973.09,2260.27 196.53,1442.82 -817.42,2776.6 -2260.27,2973.1 -1442.82,196.53 -2776.57,-817.42 -2973.09,-2260.26 -196.54,-1442.88 817.43,-2776.58 2260.27,-2973.11zm-21.24 -155.97c-1531.31,208.57 -2603.58,1619.02 -2395,3150.31 208.57,1531.28 1619.01,2603.55 3150.31,2394.99 1531.31,-208.6 2603.58,-1619.04 2395.02,-3150.3 -208.6,-1531.31 -1619.04,-2603.58 -3150.33,-2395z"/>
   <path class="fil2 str0" d="M2591.98 1519.86l-575.5 -330c-50.31,-27.43 -116.71,10.65 -116.71,69.4l-16.99 522.15c-2.88,42.69 -2.51,53.55 40.81,78.59l565.71 324.2c51.33,32.1 138.52,-2.93 135.86,-48.12l21.08 -536.7c2.05,-50.6 -4.79,-51.89 -54.26,-79.52l0 0z"/>
   <path class="fil1" d="M2591.98 1519.86l-575.5 -329.99c-50.31,-27.44 -116.14,10.64 -116.7,69.39l-17 522.15c-2.88,42.69 -2.51,53.55 40.81,78.6l565.71 324.19c51.33,32.1 138.52,-2.93 135.86,-48.13l21.08 -536.69c2.05,-50.6 -4.79,-51.89 -54.26,-79.52l0 0z"/>
   <path class="fil3" d="M2359.17 1483.88c13.13,22.99 -5.16,50.46 -38.71,51.37 -11.11,0.29 -21.66,-1.94 -31.01,-7.29 -33.31,-19.02 -139.28,-78.92 -172.41,-98.18 -24.06,-14.02 -47.89,-28.29 -71.8,-42.47 -14.38,-8.5 -23.96,-19.64 -21.8,-35.48 2.04,-15.07 10.76,-27.14 26.32,-34.03 12.4,-5.54 25.17,-3.08 37.12,2.59 29.4,13.88 57.01,30.33 84.97,46.29 30.83,17.6 134.17,76.32 164.74,94.27 9.61,5.63 17.52,12.75 22.58,22.94l0 -0.01z"/>
   <path class="fil3" d="M3561.62 2083.64l-575.49 -330.06c-51.59,-28.13 -116.17,14.61 -116.7,69.42l-17 522.22c-2.88,42.71 -2.52,53.57 40.81,78.61l565.7 324.25c51.34,32.1 138.53,-2.92 135.86,-48.14l21.08 -536.77c2.04,-50.61 -4.78,-51.9 -54.26,-79.53l0 0z"/>
   <path class="fil2 str1" d="M3561.62 2083.64l-575.49 -330.06c-51.59,-28.13 -116.7,14.61 -116.7,69.42l-17 522.22c-2.88,42.71 -2.52,53.57 40.81,78.61l565.7 324.25c51.34,32.1 138.53,-2.92 135.86,-48.14l21.08 -536.77c2.04,-50.61 -4.78,-51.9 -54.26,-79.53l0 0z"/>
   <path class="fil1" d="M3341.31 2076.77c13.13,22.99 -5.15,50.45 -38.7,51.36 -11.11,0.3 -21.67,-1.94 -31.02,-7.28 -33.31,-19.03 -139.27,-78.92 -172.4,-98.19 -24.06,-14 -47.89,-28.27 -71.79,-42.46 -14.39,-8.5 -23.97,-19.63 -21.81,-35.49 2.05,-15.07 10.75,-27.13 26.32,-34.03 12.41,-5.53 25.17,-3.07 37.13,2.61 29.39,13.87 57,30.31 84.96,46.28 30.82,17.6 134.16,76.32 164.74,94.27 9.6,5.63 17.52,12.75 22.57,22.93l0 0z"/>
   <path class="fil2 str2" d="M3561.61 1129.78l-575.49 -330c-50.31,-27.43 -116.7,10.64 -116.7,69.4l-17 522.15c-2.88,42.69 -2.5,53.55 40.81,78.59l565.71 324.2c51.33,32.1 138.51,-2.93 135.85,-48.13l21.08 -536.69c2.05,-50.6 -4.78,-51.89 -54.26,-79.52l0 0z"/>
   <path class="fil1" d="M3561.61 1129.78l-575.49 -330c-50.31,-27.43 -116.13,10.64 -116.7,69.4l-17 522.15c-2.88,42.69 -2.51,53.55 40.81,78.6l565.71 324.19c51.33,32.1 138.51,-2.93 135.85,-48.13l21.08 -536.69c2.05,-50.6 -4.78,-51.89 -54.26,-79.52l0 0z"/>
   <path class="fil3" d="M3341.31 1090.15c13.13,22.99 -5.15,50.45 -38.71,51.36 -11.11,0.3 -21.66,-1.94 -31.01,-7.27 -33.31,-19.04 -139.27,-78.93 -172.4,-98.2 -24.06,-14.01 -47.89,-28.27 -71.8,-42.46 -14.39,-8.49 -23.96,-19.64 -21.8,-35.49 2.04,-15.06 10.75,-27.12 26.32,-34.01 12.4,-5.55 25.16,-3.09 37.13,2.59 29.39,13.87 57,30.31 84.96,46.28 30.82,17.6 134.16,76.32 164.74,94.27 9.6,5.63 17.51,12.75 22.57,22.93l0 0z"/>
   <path class="fil3" d="M4538.8 1678.64l-575.48 -330.07c-51.58,-28.14 -116.17,14.62 -116.71,69.43l-16.99 522.23c-2.88,42.7 -2.51,53.56 40.81,78.61l565.72 324.26c51.33,32.1 138.53,-2.92 135.85,-48.14l21.06 -536.79c2.05,-50.62 -4.76,-51.89 -54.26,-79.52l0 -0.01z"/>
   <path class="fil2 str1" d="M4538.8 1678.64l-575.48 -330.07c-51.58,-28.14 -116.71,14.62 -116.71,69.43l-16.99 522.23c-2.88,42.7 -2.51,53.56 40.81,78.61l565.72 324.26c51.33,32.1 138.53,-2.92 135.85,-48.14l21.06 -536.79c2.05,-50.62 -4.76,-51.89 -54.26,-79.52l0 -0.01z"/>
   <path class="fil1" d="M4309.82 1671.77c13.12,22.99 -5.19,50.47 -38.74,51.37 -11.08,0.29 -21.66,-1.94 -31.01,-7.28 -33.3,-19.04 -139.27,-78.93 -172.4,-98.19 -24.06,-14.02 -47.91,-28.29 -71.79,-42.46 -14.39,-8.51 -23.96,-19.65 -21.8,-35.49 2.04,-15.07 10.76,-27.13 26.31,-34.03 12.42,-5.53 25.16,-3.08 37.15,2.59 29.35,13.89 56.97,30.33 84.95,46.3 30.83,17.6 134.16,76.31 164.75,94.26 9.59,5.63 17.5,12.75 22.58,22.93l0 0z"/>
   <path class="fil2 str2" d="M4538.84 2631.25l-575.52 -330c-50.31,-27.44 -116.71,10.63 -116.71,69.41l-16.99 522.13c-2.87,42.7 -2.5,53.55 40.81,78.59l565.72 324.19c51.33,32.1 138.53,-2.93 135.85,-48.13l21.1 -536.68c2.04,-50.6 -4.8,-51.87 -54.26,-79.51l0 0z"/>
   <path class="fil1" d="M4538.84 2631.26l-575.52 -330.01c-50.31,-27.44 -116.13,10.64 -116.71,69.41l-16.99 522.13c-2.87,42.7 -2.5,53.55 40.81,78.6l565.72 324.18c51.33,32.1 138.53,-2.93 135.85,-48.13l21.1 -536.68c2.04,-50.59 -4.8,-51.87 -54.26,-79.5l0 0z"/>
   <path class="fil3" d="M4309.78 2591.61c13.16,22.99 -5.15,50.47 -38.7,51.36 -11.11,0.3 -21.66,-1.93 -31.01,-7.27 -33.3,-19.04 -139.27,-78.93 -172.4,-98.19 -24.06,-14.02 -47.91,-28.29 -71.79,-42.45 -14.39,-8.52 -23.99,-19.65 -21.8,-35.5 2.04,-15.07 10.76,-27.13 26.31,-34.03 12.39,-5.53 25.16,-3.08 37.12,2.59 29.38,13.89 57,30.33 84.98,46.3 30.83,17.6 134.16,76.31 164.75,94.26 9.59,5.63 17.5,12.75 22.54,22.93l0 0z"/>
   <g>
    <polygon class="fil2 str3" points="4377.27,2276.3 4562.51,3353.33 4903.82,4345.24 4294.89,4958.2 3158.55,5145.7 2045.58,4958.2 1398.34,4336.85 1743.83,3340.75 1920.71,2280.49 2474.32,2841.33 3197.73,2764.12 3860.36,2841.33 "/>
    <polygon id="_1" class="fil3" points="4377.27,2276.3 4562.51,3353.33 4903.82,4345.24 4294.89,4958.2 3158.55,5145.7 2045.58,4958.2 1398.34,4336.85 1743.83,3340.75 1920.71,2280.49 2474.32,2841.33 3197.73,2764.12 3860.36,2841.33 "/>
   </g>
   <path class="fil1" d="M2422.32 2961.52l2.83 -2.87 -2.83 2.87zm-0.02 0.46l-0.01 0.01 0.01 0.01 0 -0.02zm2056.18 405.97l328.82 956.37 -596.86 546.18 -1051.89 145.83 -1046.42 -145.83 -597.27 -567.13 337.18 -943.78 139.42 -866.38 434.98 464.59 -0.89 0.58 0.9 -0.58 772.72 -81.7 696.59 73.34 0 0.01 0 -0.01 422.45 -468.77 160.27 887.28z"/>
   <polygon class="fil3" points="4259.65,2683.8 4038.95,3015.99 4225.86,3194.49 4267.94,3232.86 "/>
   <path class="fil3" d="M2905.86 4188.26c0,202.25 -163.02,366.15 -364.12,366.15 -201.1,0 -364.12,-163.9 -364.12,-366.15 0,-87.7 30.7,-168.21 81.85,-231.25l-367.88 -120.29 650.15 -14.54c201.1,0 364.12,163.87 364.12,366.08l0 0z"/>
   <polygon class="fil1" points="2592.24,3928.01 2820.43,4255.29 2596.39,4477.11 "/>
   <path class="fil3" d="M4182.25 4188.26c0,202.25 -162.98,366.15 -364.1,366.15 -201.1,0 -364.1,-163.9 -364.1,-366.15 0,-202.21 162.99,-366.08 364.1,-366.08l605.61 14.54c-114.83,24.27 -226.94,60.96 -335.52,106.01 58.42,64.94 94.01,151.05 94.01,245.53l0 0z"/>
   <polygon class="fil1" points="3877.87,3928.01 4106.05,4255.29 3882.02,4477.11 "/>
   <polygon class="fil3" points="2054.85,2683.8 2275.55,3015.99 2088.62,3194.49 2046.53,3232.86 "/>
   <path class="fil3" d="M3367.28 4433.97l-183.37 220.03 -5.26 108.48 86.65 0c28.27,0 51.4,23.14 51.4,51.39l0 0.04c0,28.26 -23.13,51.4 -51.4,51.4l-198.78 0c-28.27,0 -51.4,-23.14 -51.4,-51.4l0 -0.04c0,-28.25 23.13,-51.39 51.4,-51.39l83.64 0 -3.48 -108.77 -182.15 -219.85 402.75 0.11z"/>
   <path class="fil3" d="M1237.4 2473.01c1.21,-0.69 2.44,-1.36 3.66,-2.01 11.03,-5.65 23.46,-8.77 36.78,-8.58 12.86,0.1 25.3,3.34 35.94,8.89 1.13,0.6 2.25,1.22 3.35,1.87 78.25,79.55 213.1,212.03 324.57,325.55 16.08,16.34 15.93,42.34 -0.42,58.41l-59.16 58.25c-16.54,15.76 -42.55,15.6 -58.64,-0.75l-165.41 -168.24 -2.49 286.97c138.35,37.56 238.97,164.75 237.79,314.55 -1.48,150.05 -104.55,275.17 -243.43,310.28l-1.35 133.82c-0.54,45.86 -37.85,82.9 -83.66,82.37 -27.09,-0.32 -50.95,-13.33 -65.94,-33.41 -10.49,-14.14 -16.64,-31.53 -16.43,-50.23l1.15 -134.17c-138.03,-37.79 -238.67,-164.97 -237.47,-314.79 1.5,-150.02 104.53,-275.14 243.43,-310.26l2.39 -286.45 -167.96 165.18c-16.35,16.08 -42.55,15.59 -58.66,-0.74l-58.23 -59.13c-16.08,-16.36 -15.6,-42.59 0.74,-58.67 112.34,-110.25 244.63,-235.29 329.45,-318.71l0 0z"/>
   <path class="fil2 str4" d="M1237.4 2473.01c1.21,-0.69 2.44,-1.36 3.66,-2.01 11.03,-5.65 23.46,-8.77 36.78,-8.58 12.86,0.1 25.3,3.34 35.94,8.89 0,0 2.25,1.22 3.35,1.87 78.25,79.55 213.1,212.03 324.57,325.55 16.08,16.34 15.93,42.34 -0.42,58.41l-59.16 58.25c-16.54,15.76 -42.55,15.6 -58.64,-0.75l-165.41 -168.24 -2.49 286.97c138.35,37.56 238.97,164.75 237.79,314.55 -1.48,150.05 -104.55,275.17 -243.43,310.28l-1.35 133.82c0,45.86 -37.85,82.9 -83.66,82.37 -27.09,-0.32 -50.95,-13.33 -65.94,-33.41 -10.49,-14.14 -16.43,-31.53 -16.43,-50.23l1.15 -134.17c-138.03,-37.79 -238.67,-164.97 -237.47,-314.79 1.5,-150.02 104.53,-275.14 243.43,-310.26l2.39 -286.45 -167.96 165.18c-16.35,16.08 -42.55,15.59 -58.66,-0.74l-58.23 -59.13c-16.08,-16.36 -15.6,-42.59 0.74,-58.67 112.34,-110.25 244.63,-235.29 329.45,-318.71l0 0z"/>
   <path class="fil3" d="M5062.26 3863.81c1.23,0.67 2.47,1.37 3.66,2.01 11.05,5.64 23.46,8.78 36.8,8.57 12.84,-0.1 25.29,-3.35 35.91,-8.89 1.13,-0.6 2.26,-1.23 3.35,-1.87 78.25,-79.55 213.12,-212.02 324.59,-325.54 16.09,-16.35 15.91,-42.34 -0.42,-58.42l-59.16 -58.24c-16.54,-15.77 -42.54,-15.6 -58.63,0.75l-165.42 168.24 -2.5 -286.99c138.36,-37.56 238.97,-164.74 237.8,-314.54 -1.48,-150.05 -104.56,-275.17 -243.45,-310.27l-1.34 -133.84c-0.53,-45.83 -37.85,-82.89 -83.64,-82.37 -27.09,0.32 -50.98,13.35 -65.94,33.44 -10.51,14.12 -16.65,31.52 -16.44,50.23l1.13 134.16c-138,37.79 -238.65,164.96 -237.45,314.79 1.48,150 104.53,275.13 243.41,310.25l2.4 286.45 -167.95 -165.18c-16.34,-16.07 -42.55,-15.58 -58.67,0.75l-58.21 59.12c-16.08,16.36 -15.63,42.59 0.74,58.68 112.33,110.25 244.62,235.28 329.43,318.71l0 0z"/>
   <path class="fil2 str4" d="M5062.26 3863.81c1.23,0.67 3.66,2.01 3.66,2.01 11.05,5.64 23.46,8.78 36.8,8.57 12.84,-0.1 25.29,-3.35 35.91,-8.89 0,0 3.35,-1.87 3.35,-1.87 78.25,-79.55 213.12,-212.02 324.59,-325.54 16.09,-16.35 15.91,-42.34 -0.42,-58.42l-59.16 -58.24c-16.54,-15.77 -42.54,-15.6 -58.63,0.75l-165.42 168.24 -2.5 -286.99c138.36,-37.56 238.97,-164.74 237.8,-314.54 -1.48,-150.05 -104.56,-275.17 -243.45,-310.27l-1.34 -133.84c0,-45.83 -37.85,-82.89 -83.64,-82.37 -27.09,0.32 -50.98,13.35 -65.94,33.44 -10.51,14.12 -16.44,31.52 -16.44,50.23l1.13 134.16c-138,37.79 -238.65,164.96 -237.45,314.79 1.48,150 104.53,275.13 243.41,310.25l2.4 286.45 -167.95 -165.18c-16.34,-16.07 -42.55,-15.58 -58.67,0.75l-58.21 59.12c-16.08,16.36 -15.63,42.59 0.74,58.68 112.33,110.25 244.62,235.28 329.43,318.71l0 0z"/>
  </g>
 </g>
</svg>
