<?xml version="1.0" encoding="UTF-8"?>
<svg xmlns="http://www.w3.org/2000/svg" version="1.1" viewBox="0 0 963.8 170.1">
  <defs>
    <style>
      .cls-1 {
        stroke-width: 3.3px;
      }

      .cls-1, .cls-2, .cls-3, .cls-4 {
        stroke: #fff;
      }

      .cls-1, .cls-2, .cls-3, .cls-4, .cls-5 {
        stroke-linecap: round;
        stroke-linejoin: round;
      }

      .cls-1, .cls-3, .cls-5 {
        fill: none;
      }

      .cls-6, .cls-2, .cls-4, .cls-7 {
        fill: #fff;
      }

      .cls-2 {
        stroke-width: 3.6px;
      }

      .cls-3 {
        stroke-width: 3.3px;
      }

      .cls-8 {
        fill: #003d66;
      }

      .cls-4 {
        stroke-width: 3.6px;
      }

      .cls-9, .cls-10 {
        fill: #003e66;
      }

      .cls-5 {
        stroke-width: 4.6px;
      }

      .cls-5, .cls-7 {
        stroke: #003e66;
      }

      .cls-10 {
        fill-rule: evenodd;
      }

      .cls-7 {
        stroke-miterlimit: 10;
        stroke-width: 1.4px;
      }
    </style>
  </defs>
  <!-- Generator: Adobe Illustrator 28.7.1, SVG Export Plug-In . SVG Version: 1.2.0 Build 142)  -->
  <g>
    <g id="Ebene_1">
      <g>
        <g>
          <path class="cls-8" d="M220.4,62.8c-.8-2.7-2.5-5.7-7.8-5.7s-8.6,1.1-8.6,5.6c0,10.4,29.1,3.4,29.1,25.9s-10.3,16.9-20.8,16.9-21.3-9.9-21.3-17.5,1.1-2.5,2.5-2.5h6.6c1.4,0,2.1,1.2,2.4,2.2.3,1.5,1.1,7.6,9.8,7.6s9-1.7,9-6.6c0-11.3-29.1-4.2-29.1-25.9s6.5-15.9,20.5-15.9,19.5,7.6,19.5,15.7-1.1,2.5-2.5,2.5h-6.7c-1.4,0-2.2-.7-2.6-2.3Z"/>
          <path class="cls-8" d="M260.2,53.5c0,3.9-2.8,6.7-6.8,6.7s-6.7-2.8-6.7-6.7,2.8-6.7,6.7-6.7,6.8,2.8,6.8,6.7ZM247.5,102.1v-35.7c0-1.4,1.1-2.5,2.5-2.5h6.8c1.4,0,2.5,1.1,2.5,2.5v35.7c0,1.4-1.1,2.5-2.5,2.5h-6.8c-1.4,0-2.5-1.1-2.5-2.5Z"/>
          <path class="cls-8" d="M335,83.6v18.5c0,1.4-1.1,2.5-2.5,2.5h-6.8c-1.4,0-2.5-1.1-2.5-2.5v-19.8c0-6.2-.5-9.5-5.8-9.5s-6.4,3.9-6.4,9.5v19.8c0,1.4-1.1,2.5-2.4,2.5h-6.8c-1.4,0-2.5-1.1-2.5-2.5v-19.8c0-6.2-.5-9.5-5.7-9.5s-6.5,3.9-6.5,9.5v19.7c0,1.4-1.1,2.5-2.5,2.5h-6.8c-1.4,0-2.5-1.1-2.5-2.5v-35.7c0-1.4,1.1-2.5,2.5-2.5h6.8c1.4,0,2.5,1.1,2.5,2.5v1.3c2.4-3.1,5.4-4.7,10.3-4.7s8.3,1.4,11.2,5.6c3-3.7,7.3-5.5,12.5-5.5,12.5,0,13.9,8.8,13.9,20.5Z"/>
          <path class="cls-8" d="M392.8,86.3c-.7,9.6-8.6,19.2-21.6,19.2s-22.6-9.6-22.6-23.9v-10.9c0-14.3,9.5-23.9,22.6-23.9s20.8,9.3,21.4,19.1c0,1.2-.6,2-1.8,2h-8.3c-.9,0-1.8-.6-2-2.2-.7-3.9-3.3-7.9-9.3-7.9s-10.8,4.6-10.8,13v10.8c0,8.4,4.8,12.8,10.8,12.8s8.9-3.7,9.3-7.6c.2-1.2.5-2.5,2.1-2.5h8.4c1.1,0,1.9,1.1,1.8,2Z"/>
          <path class="cls-8" d="M453.8,102.9c0,1.1-.8,1.8-1.9,1.8h-8.1c-1.3,0-2-.7-2.1-1.4l-3.3-9.9h-21.2l-3.3,9.8c-.3,1.1-1.3,1.5-2,1.5h-7.7c-1.1,0-1.9-.7-1.9-1.8s.2-1.1.4-1.5l18.4-51.9c.2-.7,1.1-1.8,2.4-1.8h9.1c1.4,0,2.2,1.1,2.4,1.8l17.9,51.3c0,.2.7,1.6.7,2.2ZM435,82.8l-6.9-21.4-7.3,21.4h14.2Z"/>
          <path class="cls-8" d="M455.7,56.2v-6c0-1.4,1.1-2.5,2.5-2.5h38.9c1.4,0,2.5,1.1,2.5,2.5v6c0,1.4-1.1,2.5-2.5,2.5h-13.5v43.4c0,1.4-1.1,2.5-2.5,2.5h-6.8c-1.4,0-2.5-1.1-2.5-2.5v-43.4h-13.5c-1.4,0-2.5-1.1-2.5-2.5Z"/>
          <path class="cls-8" d="M538,62.8c-.8-2.7-2.5-5.7-7.8-5.7s-8.6,1.1-8.6,5.6c0,10.4,29.1,3.4,29.1,25.9s-10.3,16.9-20.8,16.9-21.3-9.9-21.3-17.5,1.1-2.5,2.5-2.5h6.6c1.4,0,2.1,1.2,2.4,2.2.3,1.5,1.1,7.6,9.8,7.6s9-1.7,9-6.6c0-11.3-29.1-4.2-29.1-25.9s6.5-15.9,20.5-15.9,19.5,7.6,19.5,15.7-1.1,2.5-2.5,2.5h-6.7c-1.4,0-2.2-.7-2.6-2.3Z"/>
          <path class="cls-8" d="M583.6,85.8h-18c-1.4,0-2.5-1.1-2.5-2.5v-6.4c0-1.4,1.1-2.5,2.5-2.5h18c1.4,0,2.5,1.1,2.5,2.5v6.4c0,1.4-1.1,2.5-2.5,2.5Z"/>
          <path class="cls-8" d="M600.2,102.1v-52c0-1.4,1.1-2.5,2.5-2.5h17.8c13.2,0,23,9.5,23,23.8v9.4c0,14.3-9.9,23.9-23,23.9h-17.8c-1.4,0-2.5-1.1-2.5-2.5ZM612,93.5h8.5c5.9,0,10.9-4.4,10.9-12.7v-9.2c0-8.3-5-12.8-10.9-12.8h-8.5v34.7Z"/>
          <path class="cls-8" d="M687.3,104.7h-5.8c-1.4,0-2.5-1.1-2.5-2.5v-1.3c-1.5,3-5.4,4.6-9.3,4.6h-.9c-6.1,0-13.2-2.5-13.2-12.7s14.6-12.8,18-12.8h5.4v-1.3c0-4.7-3.1-5.8-6.3-5.8s-4.3,1.8-4.8,3.2c-.2.8-.8,1.5-1.9,1.5h-7.1c-1.1,0-1.9-.7-1.9-1.8s0-1,.2-1.5c1.1-3.6,3-11.1,15.4-11.1s17.1,7.3,17.1,15.9v23.1c0,1.4-1.1,2.5-2.5,2.5ZM666.4,92.8c0,3.5,3,3.7,5.1,3.7h1c6.4,0,6.4-3.2,6.4-7.2v-1.2h-5c-3.4,0-7.6,0-7.6,4.6Z"/>
          <path class="cls-8" d="M707.5,93.2v-19h-4.8c-1.4,0-2.5-1.1-2.5-2.5v-5.2c0-1.4,1.1-2.5,2.5-2.5,3.6,0,4.8-.8,4.8-3.9v-4.2c0-1.4,1.1-2.5,2.5-2.5h6.5c1.4,0,2.5,1.1,2.5,2.5v8.1h7.1c1.4,0,2.5,1.1,2.5,2.5v5.2c0,1.4-1.1,2.5-2.5,2.5h-7.1v16.9c0,1.5.2,3,2.9,3h4.2c1.4,0,2.5,1.1,2.5,2.5v5.5c0,1.4-1.1,2.5-2.5,2.5h-6.6c-8.1,0-12.1-4.5-12.1-11.5Z"/>
          <path class="cls-8" d="M771.7,104.7h-5.8c-1.4,0-2.5-1.1-2.5-2.5v-1.3c-1.5,3-5.4,4.6-9.3,4.6h-.9c-6.1,0-13.2-2.5-13.2-12.7s14.6-12.8,18-12.8h5.4v-1.3c0-4.7-3.1-5.8-6.3-5.8s-4.3,1.8-4.8,3.2c-.2.8-.8,1.5-1.9,1.5h-7.1c-1.1,0-1.9-.7-1.9-1.8s0-1,.2-1.5c1.1-3.6,3-11.1,15.4-11.1s17.1,7.3,17.1,15.9v23.1c0,1.4-1.1,2.5-2.5,2.5ZM750.8,92.8c0,3.5,3,3.7,5.1,3.7h1c6.4,0,6.4-3.2,6.4-7.2v-1.2h-5c-3.4,0-7.6,0-7.6,4.6Z"/>
          <path class="cls-8" d="M787.3,93.8c0-.4-.2-1.1-.2-1.5,0-1.1.8-1.9,1.9-1.9h6.9c1.1,0,1.5.7,1.9,1.6.4,1.1,1.1,4.3,6.6,4.3s5.5-1.3,5.5-3.6c0-6-22-1.1-22-17s7.1-12.6,16.7-12.6,13.7,3.1,15.8,10.9c0,.3.2,1.1.2,1.7,0,1.1-.7,1.8-1.8,1.8h-6.9c-1.1,0-1.4-.5-1.9-1.5-1.1-2-2.6-3.8-6-3.8s-4.9.8-4.9,2.9c0,6.4,21.9,1.4,21.9,17.4s-8.1,13-16.8,13-15.9-6.4-16.9-11.7Z"/>
          <path class="cls-8" d="M851.7,95.7c2.6,0,3.9-.7,5.8-2.6.3-.3,1.1-1.5,2.6-1.5h7c1.1,0,1.8.8,1.8,1.9s-.3,1.2-.5,1.5c-3.3,7.2-10.1,10.4-16.7,10.4-10.2,0-18.6-7.7-18.6-19.1v-4.2c0-11.4,8.4-19.1,18.6-19.1s18.2,8.1,18.2,18.7v3.5c0,1.4-1.1,2.5-2.5,2.5h-22.4v.5c0,4.1,2.9,7.3,6.8,7.3ZM858.4,79.6c0-4.1-2.9-6.7-6.8-6.7s-6.8,2.7-6.8,6.8v.6h13.5v-.7Z"/>
          <path class="cls-8" d="M886,93.2v-19h-4.8c-1.4,0-2.5-1.1-2.5-2.5v-5.2c0-1.4,1.1-2.5,2.5-2.5,3.6,0,4.8-.8,4.8-3.9v-4.2c0-1.4,1.1-2.5,2.5-2.5h6.5c1.4,0,2.5,1.1,2.5,2.5v8.1h7.1c1.4,0,2.5,1.1,2.5,2.5v5.2c0,1.4-1.1,2.5-2.5,2.5h-7.1v16.9c0,1.5.2,3,2.9,3h4.2c1.4,0,2.5,1.1,2.5,2.5v5.5c0,1.4-1.1,2.5-2.5,2.5h-6.6c-8.1,0-12.1-4.5-12.1-11.5Z"/>
          <path class="cls-8" d="M918.2,93.8c0-.4-.2-1.1-.2-1.5,0-1.1.8-1.9,1.9-1.9h6.9c1.1,0,1.5.7,1.9,1.6.4,1.1,1.1,4.3,6.6,4.3s5.5-1.3,5.5-3.6c0-6-22-1.1-22-17s7.1-12.6,16.7-12.6,13.7,3.1,15.8,10.9c0,.3.2,1.1.2,1.7,0,1.1-.7,1.8-1.8,1.8h-6.9c-1.1,0-1.4-.5-1.9-1.5-1.1-2-2.6-3.8-6-3.8s-4.9.8-4.9,2.9c0,6.4,21.9,1.4,21.9,17.4s-8.1,13-16.8,13-15.9-6.4-16.9-11.7Z"/>
        </g>
        <g>
          <path class="cls-8" d="M192.4,137.4v-17.6c0-.4.3-.6.6-.6h5.9c4.1,0,7.3,3,7.3,7.6v3.7c0,4.6-3.1,7.6-7.2,7.6h-5.9c-.4,0-.6-.3-.6-.6ZM195.2,135.3h3.6c2.3,0,4.3-1.7,4.3-4.9v-3.6c0-3.1-2-4.9-4.3-4.9h-3.6v13.4Z"/>
          <path class="cls-8" d="M220.9,138h-1.5c-.4,0-.6-.3-.6-.6v-.9c-.6,1.2-2,1.8-3.4,1.8h-.4c-2.3,0-4.3-1.1-4.3-4.1s3.6-4.1,5.4-4.1h2.8v-.7c0-1.6-.6-2.7-2.6-2.7s-2.1.7-2.3,1.5c0,.2-.2.4-.5.4h-1.7c-.3,0-.5-.2-.5-.5s0-.2,0-.3c.3-1.4,1.1-3.6,4.9-3.6s5.3,2.7,5.3,5.2v7.9c0,.4-.3.6-.6.6ZM213.3,134.2c0,1.3,1.1,1.8,2.2,1.8h.4c2.5,0,2.9-1.6,2.9-3.1v-.7h-2.7c-1.7,0-2.8.4-2.8,2Z"/>
          <path class="cls-8" d="M227.7,133.7v-6.6h-1.9c-.4,0-.6-.3-.6-.6v-1.3c0-.4.3-.6.6-.6,1.3,0,1.9-.3,1.9-1.7v-1.2c0-.4.3-.6.6-.6h1.6c.4,0,.6.3.6.6v2.9h2.7c.4,0,.6.3.6.6v1.3c0,.4-.3.6-.6.6h-2.7v6.2c0,1.5.2,2.1,1.8,2.1h.9c.4,0,.6.3.6.6v1.4c0,.4-.3.6-.6.6h-1.4c-3.2,0-4.2-1.5-4.2-4.3Z"/>
          <path class="cls-8" d="M248,138h-1.5c-.4,0-.6-.3-.6-.6v-.9c-.6,1.2-2,1.8-3.4,1.8h-.4c-2.3,0-4.3-1.1-4.3-4.1s3.6-4.1,5.4-4.1h2.8v-.7c0-1.6-.6-2.7-2.6-2.7s-2.1.7-2.3,1.5c0,.2-.2.4-.5.4h-1.7c-.3,0-.5-.2-.5-.5s0-.2,0-.3c.3-1.4,1.1-3.6,4.9-3.6s5.3,2.7,5.3,5.2v7.9c0,.4-.3.6-.6.6ZM240.4,134.2c0,1.3,1.1,1.8,2.2,1.8h.4c2.5,0,2.9-1.6,2.9-3.1v-.7h-2.7c-1.7,0-2.8.4-2.8,2Z"/>
          <path class="cls-8" d="M253.5,134.6c0-.1,0-.3,0-.4,0-.3.2-.4.5-.4h1.7c.3,0,.4.2.5.4.2.7.8,1.8,2.7,1.8s2.5-.5,2.5-1.7c0-2.8-7.7-.5-7.7-6s2.4-3.9,5.1-3.9,4.6,2,5,3.6c0,0,0,.2,0,.4,0,.3-.2.5-.5.5h-1.7c-.3,0-.4-.1-.5-.4-.3-.8-.7-1.6-2.5-1.6s-2.2.4-2.2,1.5c0,3,7.6.7,7.6,6.1s-2.5,4.1-5.3,4.1-5-1.9-5.3-3.7Z"/>
          <path class="cls-8" d="M274.3,135.8c.9,0,1.9-.2,2.6-1.6.1-.1.3-.4.6-.4h1.7c.3,0,.4.2.4.4s0,.3-.1.5c-1,2.6-3.3,3.6-5.3,3.6-3.2,0-5.8-2.3-5.8-6.1v-1.8c0-3.8,2.6-6.1,5.8-6.1s5.7,2.5,5.7,6.1v1.3c0,.4-.3.6-.6.6h-8v.4c0,1.9,1.3,3.2,2.9,3.2ZM277.2,129.9c0-2-1.2-3.1-2.9-3.1s-2.9,1.2-2.9,3.1v.3h5.8v-.3Z"/>
          <path class="cls-8" d="M285.6,133.7v-6.6h-1.9c-.4,0-.6-.3-.6-.6v-1.3c0-.4.3-.6.6-.6,1.3,0,1.9-.3,1.9-1.7v-1.2c0-.4.3-.6.6-.6h1.6c.4,0,.6.3.6.6v2.9h2.7c.4,0,.6.3.6.6v1.3c0,.4-.3.6-.6.6h-2.7v6.2c0,1.5.2,2.1,1.8,2.1h.9c.4,0,.6.3.6.6v1.4c0,.4-.3.6-.6.6h-1.4c-3.2,0-4.2-1.5-4.2-4.3Z"/>
          <path class="cls-8" d="M315.8,137.4v-7.6h-7.9v7.6c0,.4-.3.6-.6.6h-1.6c-.4,0-.6-.3-.6-.6v-17.6c0-.4.3-.6.6-.6h1.6c.4,0,.6.3.6.6v7.3h7.9v-7.3c0-.4.3-.6.6-.6h1.6c.4,0,.6.3.6.6v17.6c0,.4-.3.6-.6.6h-1.6c-.4,0-.6-.3-.6-.6Z"/>
          <path class="cls-8" d="M333.9,138h-1.5c-.4,0-.6-.3-.6-.6v-.9c-.6,1.2-2,1.8-3.4,1.8h-.4c-2.3,0-4.3-1.1-4.3-4.1s3.6-4.1,5.4-4.1h2.8v-.7c0-1.6-.6-2.7-2.6-2.7s-2.1.7-2.3,1.5c0,.2-.2.4-.5.4h-1.7c-.3,0-.5-.2-.5-.5s0-.2,0-.3c.3-1.4,1.1-3.6,4.9-3.6s5.3,2.7,5.3,5.2v7.9c0,.4-.3.6-.6.6ZM326.3,134.2c0,1.3,1.1,1.8,2.2,1.8h.4c2.5,0,2.9-1.6,2.9-3.1v-.7h-2.7c-1.7,0-2.8.4-2.8,2Z"/>
          <path class="cls-8" d="M340,137.4v-12.2c0-.4.3-.6.6-.6h1.6c.4,0,.6.3.6.6v.9c.7-1.1,1.8-1.8,3.7-1.8,3.3,0,4.9,2.5,4.9,6.1v7c0,.4-.3.6-.6.6h-1.6c-.4,0-.6-.3-.6-.6v-7.3c0-2.2-1.2-3.3-2.9-3.3s-2.9,1.2-2.9,3.3v7.3c0,.4-.3.6-.6.6h-1.6c-.4,0-.6-.3-.6-.6Z"/>
          <path class="cls-8" d="M365.2,137.4v-.9c-.8,1.2-2,1.8-3.8,1.8-2.9,0-4.9-2.2-4.9-6.3v-1.6c0-4,1.9-6.1,4.9-6.1s3,.7,3.8,1.8v-6.3c0-.4.3-.6.6-.6h1.6c.4,0,.6.3.6.6v17.6c0,.4-.3.6-.6.6h-1.6c-.4,0-.6-.3-.6-.6ZM365.2,132.5v-2.5c0-1.9-1-3.3-2.9-3.3s-2.9,1.4-2.9,3.3v2.4c0,1.9,1,3.3,2.9,3.3s2.9-1.4,2.9-3.3Z"/>
          <path class="cls-8" d="M373.9,137.4v-17.6c0-.4.3-.6.6-.6h1.6c.4,0,.6.3.6.6v17.6c0,.4-.3.6-.6.6h-1.6c-.4,0-.6-.3-.6-.6Z"/>
          <path class="cls-8" d="M385.8,120.7c0,1-.7,1.8-1.8,1.8s-1.8-.7-1.8-1.8.7-1.8,1.8-1.8,1.8.7,1.8,1.8ZM382.6,137.4v-12.2c0-.4.3-.6.6-.6h1.6c.4,0,.6.3.6.6v12.2c0,.4-.3.6-.6.6h-1.6c-.4,0-.6-.3-.6-.6Z"/>
          <path class="cls-8" d="M391.2,137.4v-12.2c0-.4.3-.6.6-.6h1.6c.4,0,.6.3.6.6v.9c.7-1.1,1.8-1.8,3.7-1.8,3.3,0,4.9,2.5,4.9,6.1v7c0,.4-.3.6-.6.6h-1.6c-.4,0-.6-.3-.6-.6v-7.3c0-2.2-1.2-3.3-2.9-3.3s-2.9,1.2-2.9,3.3v7.3c0,.4-.3.6-.6.6h-1.6c-.4,0-.6-.3-.6-.6Z"/>
          <path class="cls-8" d="M419.9,139.6c0,2.3-1.7,4.1-4.7,4.1h-3.1c-3,0-4.7-1.9-4.7-4.1s.6-2.5,1.8-3.1c-.8-.4-1.2-1.1-1.2-2s.6-1.9,1.9-2.2c-1.2-.8-1.8-1.9-1.8-3.3,0-2.8,2.1-4.6,5.2-4.6h.7c.9,0,1.9.3,2.8.9v-1.8c0-.4.3-.6.6-.6h1.3c.4,0,.6.3.6.6v5.5c0,3-2.1,4.6-5.1,4.6h-2.6c-.6,0-1.1.3-1.1,1s.4.9,1.3.9h3.5c3,0,4.7,1.8,4.7,4.2ZM417.2,139.6c0-1.2-.6-2-2.5-2h-2.1c-1.9,0-2.5.8-2.5,2s.6,1.9,2.5,1.9h2.1c1.9,0,2.5-.7,2.5-1.9ZM410.8,128.9c0,1.4.9,2.3,2.5,2.3h.7c1.6,0,2.5-.9,2.5-2.3s-.9-2.3-2.5-2.3h-.7c-1.6,0-2.5,1-2.5,2.3Z"/>
          <path class="cls-8" d="M442.2,124c-.2-1.3-.9-2.5-3.4-2.5s-3.6.5-3.6,2.5c0,4.5,10.2,1.6,10.2,8.9s-3.4,5.4-6.7,5.4c-5,0-6.9-3.4-6.9-5.8s.3-.6.6-.6h1.6c.4,0,.6.3.6.6,0,.9.6,3.3,4.1,3.3s3.8-.8,3.8-2.8c0-4.4-10.2-1.6-10.2-8.9s2.4-5.1,6.5-5.1,6.2,2.8,6.2,5-.3.6-.6.6h-1.6c-.4,0-.6-.2-.6-.6Z"/>
          <path class="cls-8" d="M455.8,124.3c3.2,0,5.8,2.4,5.8,6.1v1.8c0,3.8-2.6,6.1-5.8,6.1s-5.8-2.3-5.8-6.1v-1.8c0-3.8,2.5-6.1,5.8-6.1ZM455.8,135.8c1.7,0,2.9-1.2,2.9-3.3v-2.4c0-2.2-1.2-3.3-2.9-3.3s-2.9,1.2-2.9,3.3v2.4c0,2.2,1.2,3.3,2.9,3.3Z"/>
          <path class="cls-8" d="M472.9,127.1h-2.7v10.3c0,.4-.3.6-.6.6h-1.6c-.4,0-.6-.3-.6-.6v-10.3h-1.9c-.4,0-.6-.3-.6-.6v-1.3c0-.4.3-.6.6-.6h1.9v-.6c0-3.6,1.3-4.8,4.7-4.8h.9c.4,0,.6.3.6.6v1.3c0,.4-.3.6-.6.6h-.9c-1.5,0-1.8.4-1.8,2.2v.6h2.7c.4,0,.6.3.6.6v1.3c0,.4-.3.6-.6.6Z"/>
          <path class="cls-8" d="M479,133.7v-6.6h-1.9c-.4,0-.6-.3-.6-.6v-1.3c0-.4.3-.6.6-.6,1.3,0,1.9-.3,1.9-1.7v-1.2c0-.4.3-.6.6-.6h1.6c.4,0,.6.3.6.6v2.9h2.7c.4,0,.6.3.6.6v1.3c0,.4-.3.6-.6.6h-2.7v6.2c0,1.5.2,2.1,1.8,2.1h.9c.4,0,.6.3.6.6v1.4c0,.4-.3.6-.6.6h-1.4c-3.2,0-4.2-1.5-4.2-4.3Z"/>
          <path class="cls-8" d="M507.7,125c0,.2-.1.5-.2.7l-3.8,11.9c-.1.3-.4.4-.6.4h-1.5c-.4,0-.6-.3-.6-.5l-2.8-9.4-2.8,9.4c0,.2-.2.5-.6.5h-1.6c-.3,0-.5-.2-.6-.4l-3.9-11.9c-.1-.3-.2-.5-.2-.6,0-.3.2-.5.5-.5h1.8c.3,0,.6.2.7.6l2.6,9,2.6-9c0-.4.2-.6.7-.6h1.7c.4,0,.5.2.7.6l2.7,8.8,2.4-8.8c.1-.4.3-.6.7-.6h1.9c.2,0,.4.2.4.5Z"/>
          <path class="cls-8" d="M521,138h-1.5c-.4,0-.6-.3-.6-.6v-.9c-.6,1.2-2,1.8-3.4,1.8h-.4c-2.3,0-4.3-1.1-4.3-4.1s3.6-4.1,5.4-4.1h2.8v-.7c0-1.6-.6-2.7-2.6-2.7s-2.1.7-2.3,1.5c0,.2-.2.4-.5.4h-1.7c-.3,0-.5-.2-.5-.5s0-.2,0-.3c.3-1.4,1.1-3.6,4.9-3.6s5.3,2.7,5.3,5.2v7.9c0,.4-.3.6-.6.6ZM513.4,134.2c0,1.3,1.1,1.8,2.2,1.8h.4c2.5,0,2.9-1.6,2.9-3.1v-.7h-2.7c-1.7,0-2.8.4-2.8,2Z"/>
          <path class="cls-8" d="M527.1,137.4v-12.2c0-.4.3-.6.6-.6h1.5c.4,0,.6.3.6.6v1.4c.6-1.1,1.8-2,3.6-2h.4c.4,0,.6.3.6.6v1.6c0,.3-.3.6-.6.6h-.4c-2.2,0-3.4,1.3-3.4,3.9v6.1c0,.4-.3.6-.6.6h-1.6c-.4,0-.6-.3-.6-.6Z"/>
          <path class="cls-8" d="M544.2,135.8c.9,0,1.9-.2,2.6-1.6.1-.1.3-.4.6-.4h1.7c.3,0,.4.2.4.4s0,.3-.1.5c-1,2.6-3.3,3.6-5.3,3.6-3.2,0-5.8-2.3-5.8-6.1v-1.8c0-3.8,2.6-6.1,5.8-6.1s5.7,2.5,5.7,6.1v1.3c0,.4-.3.6-.6.6h-8v.4c0,1.9,1.3,3.2,2.9,3.2ZM547.1,129.9c0-2-1.2-3.1-2.9-3.1s-2.9,1.2-2.9,3.1v.3h5.8v-.3Z"/>
        </g>
        <g>
          <path class="cls-9" d="M156.2,85.5c0,37.5-30.4,67.8-67.8,67.8S20.5,122.9,20.5,85.5,50.9,17.6,88.3,17.6s67.8,30.4,67.8,67.8h0Z"/>
          <path class="cls-9" d="M77.6,6.4C34.2,12.4,3.8,52.3,9.7,95.7c5.9,43.4,45.9,73.8,89.3,67.9,43.4-5.9,73.8-45.9,67.9-89.3C161,30.9,121,.5,77.6,6.4h0ZM78.2,10.9c40.9-5.6,78.7,23.2,84.3,64.1,5.6,40.9-23.2,78.7-64.1,84.3-40.9,5.6-78.7-23.2-84.3-64.1C8.5,54.2,37.3,16.4,78.2,10.9h0Z"/>
          <path class="cls-3" d="M72.1,42.9l-16.3-9.4c-1.4-.8-3.3.3-3.3,2l-.5,14.8c0,1.2,0,1.5,1.2,2.2l16,9.2c1.5.9,3.9,0,3.9-1.4l.6-15.2c0-1.4-.1-1.5-1.5-2.3h0Z"/>
          <path class="cls-10" d="M72.1,42.9l-16.3-9.4c-1.4-.8-3.3.3-3.3,2l-.5,14.8c0,1.2,0,1.5,1.2,2.2l16,9.2c1.5.9,3.9,0,3.9-1.4l.6-15.2c0-1.4-.1-1.5-1.5-2.3h0Z"/>
          <path class="cls-6" d="M65.5,41.9c.4.7-.1,1.4-1.1,1.5-.3,0-.6,0-.9-.2-.9-.5-3.9-2.2-4.9-2.8-.7-.4-1.4-.8-2-1.2-.4-.2-.7-.6-.6-1,0-.4.3-.8.7-1,.4-.2.7,0,1.1,0,.8.4,1.6.9,2.4,1.3.9.5,3.8,2.2,4.7,2.7.3.2.5.4.6.6h0Z"/>
          <path class="cls-4" d="M99.5,58.9l-16.3-9.4c-1.5-.8-3.3.4-3.3,2l-.5,14.8c0,1.2,0,1.5,1.2,2.2l16,9.2c1.5.9,3.9,0,3.9-1.4l.6-15.2c0-1.4-.1-1.5-1.5-2.3h0Z"/>
          <path class="cls-9" d="M93.3,58.7c.4.7-.1,1.4-1.1,1.5-.3,0-.6,0-.9-.2-.9-.5-3.9-2.2-4.9-2.8-.7-.4-1.4-.8-2-1.2-.4-.2-.7-.6-.6-1,0-.4.3-.8.7-1,.4-.2.7,0,1.1,0,.8.4,1.6.9,2.4,1.3.9.5,3.8,2.2,4.7,2.7.3.2.5.4.6.6h0Z"/>
          <path class="cls-1" d="M99.5,31.8l-16.3-9.4c-1.4-.8-3.3.3-3.3,2l-.5,14.8c0,1.2,0,1.5,1.2,2.2l16,9.2c1.5.9,3.9,0,3.9-1.4l.6-15.2c0-1.4-.1-1.5-1.5-2.3h0Z"/>
          <path class="cls-10" d="M99.5,31.8l-16.3-9.4c-1.4-.8-3.3.3-3.3,2l-.5,14.8c0,1.2,0,1.5,1.2,2.2l16,9.2c1.5.9,3.9,0,3.9-1.4l.6-15.2c0-1.4-.1-1.5-1.5-2.3h0Z"/>
          <path class="cls-6" d="M93.3,30.7c.4.7-.1,1.4-1.1,1.5-.3,0-.6,0-.9-.2-.9-.5-3.9-2.2-4.9-2.8-.7-.4-1.4-.8-2-1.2-.4-.2-.7-.6-.6-1,0-.4.3-.8.7-1,.4-.2.7,0,1.1,0,.8.4,1.6.9,2.4,1.3.9.5,3.8,2.2,4.7,2.7.3.2.5.4.6.6h0Z"/>
          <path class="cls-2" d="M127.2,47.4l-16.3-9.4c-1.5-.8-3.3.4-3.3,2l-.5,14.8c0,1.2,0,1.5,1.2,2.2l16,9.2c1.5.9,3.9,0,3.9-1.4l.6-15.2c0-1.4-.1-1.5-1.5-2.3h0Z"/>
          <path class="cls-9" d="M120.8,47.2c.4.7-.1,1.4-1.1,1.5-.3,0-.6,0-.9-.2-.9-.5-3.9-2.2-4.9-2.8-.7-.4-1.4-.8-2-1.2-.4-.2-.7-.6-.6-1,0-.4.3-.8.7-1,.4-.2.7,0,1.1,0,.8.4,1.6.9,2.4,1.3.9.5,3.8,2.2,4.7,2.7.3.2.5.4.6.6h0Z"/>
          <path class="cls-1" d="M127.3,74.4l-16.3-9.4c-1.4-.8-3.3.3-3.3,2l-.5,14.8c0,1.2,0,1.5,1.2,2.2l16,9.2c1.5.9,3.9,0,3.9-1.4l.6-15.2c0-1.4-.1-1.5-1.5-2.3h0Z"/>
          <path class="cls-10" d="M127.3,74.4l-16.3-9.4c-1.4-.8-3.3.3-3.3,2l-.5,14.8c0,1.2,0,1.5,1.2,2.2l16,9.2c1.5.9,3.9,0,3.9-1.4l.6-15.2c0-1.4-.1-1.5-1.5-2.3h0Z"/>
          <path class="cls-6" d="M120.8,73.3c.4.7-.1,1.4-1.1,1.5-.3,0-.6,0-.9-.2-.9-.5-3.9-2.2-4.9-2.8-.7-.4-1.4-.8-2-1.2-.4-.2-.7-.6-.6-1,0-.4.3-.8.7-1,.4-.2.7,0,1.1,0,.8.4,1.6.9,2.4,1.3.9.5,3.8,2.2,4.7,2.7.3.2.5.4.6.6h0Z"/>
          <polygon class="cls-5" points="122.7 64.3 127.9 94.9 137.6 123 120.3 140.3 88.1 145.7 56.6 140.3 38.2 122.7 48 94.5 53 64.4 68.7 80.3 89.2 78.2 108 80.3 122.7 64.3 122.7 64.3"/>
          <polygon class="cls-6" points="122.7 64.3 127.9 94.9 137.6 123 120.3 140.3 88.1 145.7 56.6 140.3 38.2 122.7 48 94.5 53 64.4 68.7 80.3 89.2 78.2 108 80.3 122.7 64.3 122.7 64.3"/>
          <path class="cls-9" d="M125.5,95.3l9.3,27.1-16.9,15.5-29.8,4.1-29.7-4.1-16.9-16.1,9.6-26.8,4-24.6,12.3,13.2h0s0,0,0,0l21.9-2.3,19.7,2.1h0s0,0,0,0l12-13.3,4.5,25.2h0ZM67.3,83.8h0s0,0,0,0h0ZM67.3,83.7h0c0,0,0,0,0,0h0Z"/>
          <polygon class="cls-6" points="119.3 75.9 113.1 85.3 118.4 90.4 119.6 91.4 119.3 75.9 119.3 75.9"/>
          <path class="cls-6" d="M81,118.5c0,5.7-4.6,10.4-10.3,10.4s-10.3-4.6-10.3-10.4.9-4.8,2.3-6.6l-10.4-3.4,18.4-.4c5.7,0,10.3,4.6,10.3,10.4h0Z"/>
          <polygon class="cls-9" points="72.1 111.1 78.5 120.4 72.2 126.7 72.1 111.1 72.1 111.1"/>
          <path class="cls-6" d="M117.1,118.5c0,5.7-4.6,10.4-10.3,10.4s-10.3-4.6-10.3-10.4,4.6-10.4,10.3-10.4l17.2.4c-3.3.7-6.4,1.7-9.5,3,1.7,1.8,2.7,4.3,2.7,7h0Z"/>
          <polygon class="cls-9" points="108.5 111.1 115 120.4 108.6 126.7 108.5 111.1 108.5 111.1"/>
          <polygon class="cls-6" points="56.8 75.9 63.1 85.3 57.8 90.4 56.6 91.4 56.8 75.9 56.8 75.9"/>
          <path class="cls-6" d="M94,125.5l-5.2,6.2v3.1c-.1,0,2.3,0,2.3,0,.8,0,1.5.7,1.5,1.5h0c0,.8-.7,1.5-1.5,1.5h-5.6c-.8,0-1.5-.7-1.5-1.5h0c0-.8.7-1.5,1.5-1.5h2.4v-3.1c0,0-5.3-6.2-5.3-6.2h11.4Z"/>
          <path class="cls-7" d="M33.7,69.9s0,0,.1,0c.3-.2.7-.2,1-.2.4,0,.7,0,1,.3,0,0,0,0,0,0,2.2,2.3,6,6,9.2,9.2.5.5.5,1.2,0,1.7l-1.7,1.7c-.5.4-1.2.4-1.7,0l-4.7-4.8v8.1c3.9,1.1,6.7,4.7,6.7,8.9,0,4.3-3,7.8-6.9,8.8v3.8c0,1.3-1.1,2.3-2.4,2.3-.8,0-1.4-.4-1.9-.9-.3-.4-.5-.9-.5-1.4v-3.8c-3.9-1.1-6.7-4.7-6.7-8.9,0-4.3,3-7.8,6.9-8.8v-8.1c0,0-4.7,4.7-4.7,4.7-.5.5-1.2.4-1.7,0l-1.7-1.7c-.5-.5-.4-1.2,0-1.7,3.2-3.1,6.9-6.7,9.3-9h0Z"/>
          <path class="cls-7" d="M142.1,109.3s0,0,.1,0c.3.2.7.2,1,.2.4,0,.7,0,1-.3,0,0,0,0,0,0,2.2-2.3,6-6,9.2-9.2.5-.5.5-1.2,0-1.7l-1.7-1.7c-.5-.4-1.2-.4-1.7,0l-4.7,4.8v-8.1c3.9-1.1,6.7-4.7,6.7-8.9,0-4.3-3-7.8-6.9-8.8v-3.8c0-1.3-1.1-2.3-2.4-2.3-.8,0-1.4.4-1.9.9-.3.4-.5.9-.5,1.4v3.8c-3.9,1.1-6.7,4.7-6.7,8.9,0,4.3,3,7.8,6.9,8.8v8.1c0,0-4.7-4.7-4.7-4.7-.5-.5-1.2-.4-1.7,0l-1.7,1.7c-.5.5-.4,1.2,0,1.7,3.2,3.1,6.9,6.7,9.3,9h0Z"/>
        </g>
      </g>
    </g>
  </g>
</svg>